<?xml version="1.0" standalone="no"?><!DOCTYPE svg PUBLIC "-//W3C//DTD SVG 1.1//EN" "http://www.w3.org/Graphics/SVG/1.1/DTD/svg11.dtd"><svg height="500" width="700" version="1.1" xmlns="http://www.w3.org/2000/svg" xmlns:xlink="http://www.w3.org/1999/xlink"><defs xmlns="http://www.w3.org/1999/xhtml"><style type="text/css"><![CDATA[
svg { background: rgb(241, 243, 245); }]]></style></defs><g transform="translate(150,30)"><circle r="10" cx="466.6666666666667" cy="20" fill="#00CD83" class="category_a"/><circle r="10" cx="133.33333333333331" cy="127.5" fill="#00CD83" class="category_a"/><circle r="10" cx="176" cy="235" fill="#00CD83" class="category_a"/><circle r="10" cx="458.66666666666663" cy="342.5" fill="#00CD83" class="category_a"/><circle r="10" cx="61.33333333333333" cy="450" fill="#00CD83" class="category_a"/><circle r="10" cx="88" cy="20" fill="#E8D245" class="category_b"/><circle r="10" cx="208" cy="127.5" fill="#E8D245" class="category_b"/><circle r="10" cx="416" cy="235" fill="#E8D245" class="category_b"/><circle r="10" cx="165.33333333333331" cy="342.5" fill="#E8D245" class="category_b"/><circle r="10" cx="290.6666666666667" cy="450" fill="#E8D245" class="category_b"/><g class="axis x-axis" transform="translate(0,0)" fill="none" font-size="10" font-family="sans-serif" text-anchor="middle" style="font-family: &quot;Noto Sans&quot;; font-size: 20px;"><path class="domain" stroke="#000" d="M0.5,-6V0.5H520.5V-6"/><g class="tick" opacity="1" transform="translate(0,0)"><line stroke="#000" y2="-6" x1="0.5" x2="0.5"/><text fill="#000" y="-9" x="0.5" dy="0em">0</text></g><g class="tick" opacity="1" transform="translate(53.33333333333333,0)"><line stroke="#000" y2="-6" x1="0.5" x2="0.5"/><text fill="#000" y="-9" x="0.5" dy="0em">20</text></g><g class="tick" opacity="1" transform="translate(106.66666666666666,0)"><line stroke="#000" y2="-6" x1="0.5" x2="0.5"/><text fill="#000" y="-9" x="0.5" dy="0em">40</text></g><g class="tick" opacity="1" transform="translate(160,0)"><line stroke="#000" y2="-6" x1="0.5" x2="0.5"/><text fill="#000" y="-9" x="0.5" dy="0em">60</text></g><g class="tick" opacity="1" transform="translate(213.33333333333331,0)"><line stroke="#000" y2="-6" x1="0.5" x2="0.5"/><text fill="#000" y="-9" x="0.5" dy="0em">80</text></g><g class="tick" opacity="1" transform="translate(266.66666666666663,0)"><line stroke="#000" y2="-6" x1="0.5" x2="0.5"/><text fill="#000" y="-9" x="0.5" dy="0em">100</text></g><g class="tick" opacity="1" transform="translate(320,0)"><line stroke="#000" y2="-6" x1="0.5" x2="0.5"/><text fill="#000" y="-9" x="0.5" dy="0em">120</text></g><g class="tick" opacity="1" transform="translate(373.3333333333333,0)"><line stroke="#000" y2="-6" x1="0.5" x2="0.5"/><text fill="#000" y="-9" x="0.5" dy="0em">140</text></g><g class="tick" opacity="1" transform="translate(426.66666666666663,0)"><line stroke="#000" y2="-6" x1="0.5" x2="0.5"/><text fill="#000" y="-9" x="0.5" dy="0em">160</text></g><g class="tick" opacity="1" transform="translate(480,0)"><line stroke="#000" y2="-6" x1="0.5" x2="0.5"/><text fill="#000" y="-9" x="0.5" dy="0em">180</text></g></g><g class="axis y-axis" transform="translate(0,0)" fill="none" font-size="10" font-family="sans-serif" text-anchor="end" style="font-family: &quot;Noto Sans&quot;; font-size: 20px;"><path class="domain" stroke="#000" d="M-6,450.5H0.5V20.5H-6"/><g class="tick" opacity="1" transform="translate(0,450)"><line stroke="#000" x2="-6" y1="0.5" y2="0.5"/><text fill="#000" x="-9" y="0.5" dy="0.32em">E</text></g><g class="tick" opacity="1" transform="translate(0,342.5)"><line stroke="#000" x2="-6" y1="0.5" y2="0.5"/><text fill="#000" x="-9" y="0.5" dy="0.32em">D</text></g><g class="tick" opacity="1" transform="translate(0,235)"><line stroke="#000" x2="-6" y1="0.5" y2="0.5"/><text fill="#000" x="-9" y="0.5" dy="0.32em">C</text></g><g class="tick" opacity="1" transform="translate(0,127.5)"><line stroke="#000" x2="-6" y1="0.5" y2="0.5"/><text fill="#000" x="-9" y="0.5" dy="0.32em">B</text></g><g class="tick" opacity="1" transform="translate(0,20)"><line stroke="#000" x2="-6" y1="0.5" y2="0.5"/><text fill="#000" x="-9" y="0.5" dy="0.32em">A</text></g></g></g></svg>